<svg width="760" height="860" viewBox="0 0 760 860" fill="none" xmlns="http://www.w3.org/2000/svg">
  <rect width="760" height="860" rx="56" fill="#F5F5F7"/>
  <rect x="78" y="74" width="604" height="712" rx="44" fill="white" stroke="#D2D2D7"/>
  <rect x="112" y="112" width="536" height="72" rx="28" fill="#FBFBFD" stroke="#E6E6EA"/>
  <rect x="136" y="135" width="108" height="24" rx="12" fill="#1D1D1F"/>
  <rect x="506" y="135" width="110" height="24" rx="12" fill="#E8F3FF"/>
  <rect x="136" y="222" width="168" height="16" rx="8" fill="#A1A1A6"/>
  <rect x="136" y="258" width="292" height="18" rx="9" fill="#1D1D1F"/>
  <rect x="136" y="288" width="260" height="18" rx="9" fill="#1D1D1F" fill-opacity="0.88"/>
  <rect x="136" y="346" width="492" height="210" rx="28" fill="#FBFBFD" stroke="#E6E6EA"/>
  <path d="M170 456C186 456 186 400 202 400C218 400 218 490 234 490C250 490 250 430 266 430C282 430 282 526 298 526C314 526 314 378 330 378C346 378 346 490 362 490C378 490 378 414 394 414C410 414 410 516 426 516C442 516 442 396 458 396C474 396 474 470 490 470C506 470 506 430 522 430C538 430 538 486 554 486C570 486 570 442 586 442" stroke="#0071E3" stroke-width="14" stroke-linecap="round"/>
  <rect x="136" y="592" width="492" height="78" rx="24" fill="#FBFBFD" stroke="#E6E6EA"/>
  <rect x="164" y="618" width="92" height="20" rx="10" fill="#1D1D1F"/>
  <rect x="282" y="618" width="142" height="20" rx="10" fill="#C7C7CC"/>
  <rect x="452" y="610" width="148" height="38" rx="19" fill="#0071E3"/>
  <rect x="136" y="698" width="232" height="48" rx="24" fill="#1D1D1F"/>
  <rect x="384" y="698" width="244" height="48" rx="24" fill="white" stroke="#D2D2D7"/>
</svg>
