<svg width="720" height="520" viewBox="0 0 720 520" fill="none" xmlns="http://www.w3.org/2000/svg">
  <rect width="720" height="520" rx="36" fill="#F5F5F7"/>
  <rect x="48" y="82" width="270" height="312" rx="28" fill="white" stroke="#D2D2D7"/>
  <rect x="402" y="128" width="270" height="312" rx="28" fill="white" stroke="#D2D2D7"/>
  <rect x="82" y="120" width="108" height="18" rx="9" fill="#A1A1A6"/>
  <rect x="82" y="162" width="196" height="16" rx="8" fill="#1D1D1F"/>
  <rect x="82" y="192" width="152" height="16" rx="8" fill="#1D1D1F" fill-opacity="0.75"/>
  <rect x="82" y="232" width="202" height="96" rx="20" fill="#FBFBFD" stroke="#E6E6EA"/>
  <path d="M352 260H438" stroke="#0071E3" stroke-width="12" stroke-linecap="round"/>
  <path d="M420 238L442 260L420 282" stroke="#0071E3" stroke-width="12" stroke-linecap="round" stroke-linejoin="round"/>
  <rect x="436" y="166" width="196" height="16" rx="8" fill="#1D1D1F"/>
  <rect x="436" y="196" width="168" height="16" rx="8" fill="#1D1D1F" fill-opacity="0.78"/>
  <rect x="436" y="236" width="202" height="132" rx="20" fill="#FBFBFD" stroke="#E6E6EA"/>
  <rect x="82" y="348" width="112" height="30" rx="15" fill="#1D1D1F"/>
  <rect x="436" y="388" width="126" height="30" rx="15" fill="#0071E3"/>
</svg>
