<svg width="720" height="520" viewBox="0 0 720 520" fill="none" xmlns="http://www.w3.org/2000/svg">
  <rect width="720" height="520" rx="36" fill="#FBFBFD"/>
  <rect x="56" y="74" width="608" height="372" rx="32" fill="white" stroke="#D2D2D7"/>
  <rect x="92" y="112" width="156" height="16" rx="8" fill="#A1A1A6"/>
  <rect x="92" y="148" width="248" height="18" rx="9" fill="#1D1D1F"/>
  <rect x="92" y="214" width="148" height="88" rx="26" fill="#1D1D1F"/>
  <rect x="258" y="214" width="102" height="88" rx="26" fill="#F5F5F7" stroke="#D2D2D7"/>
  <rect x="378" y="214" width="166" height="88" rx="26" fill="#F5F5F7" stroke="#D2D2D7"/>
  <rect x="92" y="330" width="92" height="58" rx="20" fill="#F5F5F7" stroke="#D2D2D7"/>
  <rect x="198" y="330" width="92" height="58" rx="20" fill="#F5F5F7" stroke="#D2D2D7"/>
  <rect x="304" y="330" width="240" height="58" rx="20" fill="#0071E3"/>
  <rect x="92" y="460" width="170" height="14" rx="7" fill="#A1A1A6"/>
  <rect x="282" y="460" width="210" height="14" rx="7" fill="#A1A1A6" fill-opacity="0.75"/>
</svg>
